<!-- <?xml version="1.0" standalone="no"?><svg xmlns="http://www.w3.org/2000/svg" viewBox="0 0 1440 320"><path fill="#73b9fe" fill-opacity="1" d="M0,224L48,213.3C96,203,192,181,288,192C384,203,480,245,576,266.7C672,288,768,288,864,245.3C960,203,1056,117,1152,90.7C1248,64,1344,96,1392,112L1440,128L1440,320L1392,320C1344,320,1248,320,1152,320C1056,320,960,320,864,320C768,320,672,320,576,320C480,320,384,320,288,320C192,320,96,320,48,320L0,320Z"></path></svg> -->


<?xml version="1.0" standalone="no"?><svg xmlns="http://www.w3.org/2000/svg" viewBox="0 0 1440 320" ><path fill="#73b9fe" fill-opacity="1" d="M1440,21.2101911 L1440,120 L0,120 L0,21.2101911 C120,35.0700637 240,42 360,42 C480,42 600,35.0700637 720,21.2101911 C808.32779,12.416393 874.573633,6.87702029 918.737528,4.59207306 C972.491685,1.8109458 1026.24584,0.420382166 1080,0.420382166 C1200,0.420382166 1320,7.35031847 1440,21.2101911 Z"></path></svg>